HIERARCHY
ROOT Hips
{
	OFFSET 0.000000 0.000000 0.000000
	CHANNELS 6 Xposition Yposition Zposition Zrotation Yrotation Xrotation 
	JOINT LHipJoint
	{
		OFFSET 0.000000 0.000000 0.000000
		CHANNELS 3 Zrotation Yrotation Xrotation
		JOINT LeftUpLeg
		{
			OFFSET 1.363060 -1.794630 0.839290
			CHANNELS 3 Zrotation Yrotation Xrotation
			JOINT LeftLeg
			{
				OFFSET 2.448110 -6.726130 0.000000
				CHANNELS 3 Zrotation Yrotation Xrotation
				JOINT LeftFoot
				{
					OFFSET 2.562200 -7.039590 0.000000
					CHANNELS 3 Zrotation Yrotation Xrotation
					JOINT LeftToeBase
					{
						OFFSET 0.157640 -0.433110 2.322550
						CHANNELS 3 Zrotation Yrotation Xrotation
						End Site
						{
							OFFSET 0.000000 0.000000 0.000000
						}
					}
				}
			}
		}
	}
	JOINT RHipJoint
	{
		OFFSET 0.000000 0.000000 0.000000
		CHANNELS 3 Zrotation Yrotation Xrotation
		JOINT RightUpLeg
		{
			OFFSET -1.305520 -1.794630 0.839290
			CHANNELS 3 Zrotation Yrotation Xrotation
			JOINT RightLeg
			{
				OFFSET -2.542530 -6.985550 0.000000
				CHANNELS 3 Zrotation Yrotation Xrotation
				JOINT RightFoot
				{
					OFFSET -2.568260 -7.056230 0.000000
					CHANNELS 3 Zrotation Yrotation Xrotation
					JOINT RightToeBase
					{
						OFFSET -0.164730 -0.452590 2.363150
						CHANNELS 3 Zrotation Yrotation Xrotation
						End Site
						{
							OFFSET 0.000000 0.000000 0.000000
						}
					}
				}
			}
		}
	}
	JOINT LowerBack
	{
		OFFSET 0.000000 0.000000 0.000000
		CHANNELS 3 Zrotation Yrotation Xrotation
		JOINT Spine
		{
			OFFSET 0.028270 2.035590 -0.193380
			CHANNELS 3 Zrotation Yrotation Xrotation
			JOINT Spine1
			{
				OFFSET 0.056720 2.048850 -0.042750
				CHANNELS 3 Zrotation Yrotation Xrotation
				JOINT Neck
				{
					OFFSET 0.000000 0.000000 0.000000
					CHANNELS 3 Zrotation Yrotation Xrotation
					JOINT Neck1
					{
						OFFSET -0.054170 1.746240 0.172020
						CHANNELS 3 Zrotation Yrotation Xrotation
						JOINT Head
						{
							OFFSET 0.104070 1.761360 -0.123970
							CHANNELS 3 Zrotation Yrotation Xrotation
							End Site
							{
								OFFSET 0.000000 0.000000 0.000000
							}
						}
					}
				}
				JOINT LeftShoulder
				{
					OFFSET 0.000000 0.000000 0.000000
					CHANNELS 3 Zrotation Yrotation Xrotation
					JOINT LeftArm
					{
						OFFSET 3.362410 1.200890 -0.311210
						CHANNELS 3 Zrotation Yrotation Xrotation
						JOINT LeftForeArm
						{
							OFFSET 4.983000 -0.000000 -0.000000
							CHANNELS 3 Zrotation Yrotation Xrotation
							JOINT LeftHand
							{
								OFFSET 3.483560 -0.000000 -0.000000
								CHANNELS 3 Zrotation Yrotation Xrotation
								JOINT LeftFingerBase
								{
									OFFSET 0.000000 0.000000 0.000000
									CHANNELS 3 Zrotation Yrotation Xrotation
									JOINT LeftHandIndex1
									{
										OFFSET 0.715260 -0.000000 -0.000000
										CHANNELS 3 Zrotation Yrotation Xrotation
										End Site
										{
											OFFSET 0.000000 0.000000 0.000000
										}
									}
								}
								JOINT LThumb
								{
									OFFSET 0.000000 0.000000 0.000000
									CHANNELS 3 Zrotation Yrotation Xrotation
									End Site
									{
										OFFSET 0.000000 0.000000 0.000000
									}
								}
							}
						}
					}
				}
				JOINT RightShoulder
				{
					OFFSET 0.000000 0.000000 0.000000
					CHANNELS 3 Zrotation Yrotation Xrotation
					JOINT RightArm
					{
						OFFSET -3.136600 1.374050 -0.404650
						CHANNELS 3 Zrotation Yrotation Xrotation
						JOINT RightForeArm
						{
							OFFSET -5.241900 -0.000000 -0.000000
							CHANNELS 3 Zrotation Yrotation Xrotation
							JOINT RightHand
							{
								OFFSET -3.444170 -0.000000 -0.000000
								CHANNELS 3 Zrotation Yrotation Xrotation
								JOINT RightFingerBase
								{
									OFFSET 0.000000 0.000000 0.000000
									CHANNELS 3 Zrotation Yrotation Xrotation
									JOINT RightHandIndex1
									{
										OFFSET -0.622530 -0.000000 -0.000000
										CHANNELS 3 Zrotation Yrotation Xrotation
										End Site
										{
											OFFSET 0.000000 0.000000 0.000000
										}
									}
								}
								JOINT RThumb
								{
									OFFSET 0.000000 0.000000 0.000000
									CHANNELS 3 Zrotation Yrotation Xrotation
									End Site
									{
										OFFSET 0.000000 0.000000 0.000000
									}
								}
							}
						}
					}
				}
			}
		}
	}
}
MOTION
Frames: 7
Frame Time: 0.008333
0.179840 18.138154 -6.051251 -7.141084 -6.468441 1.783745 -0.545622 3.564183 2.146311 -5.981857 -7.829969 -33.059398 2.836628 12.690277 37.091743 0.085853 1.992475 7.739418 0.600600 -4.961200 -13.797900 2.913575 -4.751077 5.467551 27.601837 12.491322 -3.224546 -0.657207 -5.819799 23.892208 0.362884 -2.668295 -0.689284 -0.072800 1.740900 -4.790100 6.041199 2.204611 4.666282 4.296903 3.568896 3.314574 -1.553969 1.722048 -5.892712 -4.467295 -4.123222 -15.171810 2.926739 -4.778267 15.751263 -0.527500 -2.028200 8.543800 -7.114621 2.676843 -1.411746 -79.395978 9.996975 31.001794 17.332701 -28.266406 -4.769028 -0.418344 -1.296847 -3.390421 22.728428 30.296069 12.655300 -7.125000 0.000000 0.000000 -10.605000 63.422000 -4.766700 11.334479 -1.535362 -2.476939 70.674111 2.628955 22.344764 -12.923003 25.978051 -3.773565 0.955342 -0.247733 -0.591818 -14.913183 18.947341 -5.319800 7.125000 0.000000 0.000000 8.021600 -10.306200 6.523000
0.185638 18.145658 -5.941561 -7.255393 -6.484638 1.931089 -0.617918 3.538209 2.110897 -5.609603 -8.041635 -32.824383 2.456918 12.277868 35.619487 0.062246 2.193686 7.806340 0.419553 -4.114191 -11.404367 2.948145 -4.772025 5.524989 27.610698 12.384900 -2.790215 -0.569491 -5.668380 23.440393 0.346700 -2.630550 -0.782010 -0.061345 1.594761 -4.386998 6.173836 2.243530 4.730036 4.301312 3.639139 3.193285 -1.630537 1.749681 -6.030072 -4.564427 -4.124904 -15.075117 3.015805 -4.777408 15.708102 -0.483713 -2.026505 8.516077 -7.111836 2.683556 -1.411469 -79.493610 10.180616 30.867895 17.208059 -28.102398 -4.710288 -0.425633 -1.258707 -3.293493 22.703904 29.001803 12.174248 -7.125000 0.000000 0.000000 -9.757991 62.079027 -4.086368 11.338168 -1.530362 -2.472951 70.571444 2.725310 22.319956 -12.903590 25.951918 -3.757324 0.959406 -0.297003 -0.538179 -14.811316 19.834947 -5.530264 7.125000 0.000000 0.000000 8.123003 -9.368769 6.763018
0.190541 18.138272 -5.832051 -7.396176 -6.576279 2.027631 -0.682829 3.482200 2.033767 -5.221375 -8.239410 -32.831938 2.037435 11.810865 33.891143 -0.098299 2.924205 8.372905 0.487140 -4.378654 -12.160386 2.980153 -4.791129 5.593180 27.673737 12.329120 -2.271175 -0.485045 -5.510443 22.984901 0.354771 -2.655218 -0.870330 -0.056967 1.539633 -4.234948 6.292283 2.298387 4.854190 4.326084 3.730570 3.081937 -1.686639 1.790167 -6.187314 -4.641469 -4.116392 -14.997090 3.073475 -4.761082 15.734291 -0.450666 -2.017236 8.513036 -7.110733 2.693686 -1.410999 -79.574822 10.337700 30.779308 17.034663 -27.877332 -4.628062 -0.441472 -1.220661 -3.288420 22.954248 27.625643 11.807217 -7.125000 0.000000 0.000000 -8.617678 60.708740 -3.337360 11.339819 -1.522028 -2.469056 70.471188 2.808399 22.398481 -12.924359 25.979810 -3.756878 0.969039 -0.342492 -0.480082 -14.887842 20.705698 -5.804354 7.125000 0.000000 0.000000 8.109851 -8.431943 6.902849
0.194600 18.118510 -5.722531 -7.559237 -6.738491 2.078642 -0.742865 3.401682 1.922016 -4.815934 -8.428343 -33.033663 1.584903 11.293319 31.938092 -0.378591 4.115160 9.363913 0.765292 -5.586457 -15.589158 3.009980 -4.809132 5.670878 27.781832 12.316421 -1.676303 -0.403493 -5.347002 22.526357 0.382791 -2.730823 -0.951780 -0.059262 1.570203 -4.319296 6.397378 2.368735 5.026056 4.367029 3.841874 2.984859 -1.725121 1.842982 -6.354174 -4.692988 -4.099958 -14.942173 3.097986 -4.733189 15.818523 -0.430398 -2.002392 8.531648 -7.111342 2.706430 -1.410626 -79.638084 10.467254 30.739690 16.823285 -27.605209 -4.527338 -0.464109 -1.185544 -3.377859 23.443843 26.268841 11.573427 -7.125000 0.000000 0.000000 -7.274958 59.409636 -2.568603 11.339525 -1.510803 -2.464834 70.376907 2.890843 22.560877 -12.978602 26.052022 -3.769274 0.983168 -0.385727 -0.409356 -15.114312 21.576172 -6.135630 7.125000 0.000000 0.000000 8.002007 -7.480946 6.962076
0.198011 18.120147 -5.609704 -7.689512 -6.943607 2.139106 -0.837847 3.373121 1.871310 -4.357675 -8.689315 -32.743185 1.189740 10.754842 30.125148 -0.576051 4.939307 9.812546 0.761090 -5.571409 -15.545777 3.042465 -4.838082 5.744069 27.812505 12.249874 -1.098854 -0.320609 -5.191267 22.073192 0.371850 -2.698619 -0.977868 -0.066582 1.663403 -4.576395 6.492931 2.459345 5.063092 4.364221 3.966272 2.989129 -1.781320 1.909015 -6.359461 -4.603541 -4.108810 -15.006613 3.031676 -4.752384 15.810703 -0.468831 -2.012356 8.536664 -7.115585 2.709928 -1.415462 -79.642164 10.529961 30.852590 16.730972 -27.491975 -4.480117 -0.468548 -1.205171 -3.684879 23.745860 26.712751 11.916203 -7.125000 0.000000 0.000000 -7.150577 59.957115 -2.617271 11.337355 -1.502080 -2.452662 70.355588 3.192223 22.535855 -12.976542 26.035284 -3.753437 0.986713 -0.451548 -0.173281 -15.116356 22.735227 -6.458206 7.125000 0.000000 0.000000 8.068976 -6.246628 7.216734
0.203967 18.118455 -5.494097 -7.820474 -7.115608 2.234293 -0.946779 3.349943 1.827537 -3.881376 -8.996385 -32.373571 0.792227 10.169105 28.220962 -0.776388 5.756358 10.230403 0.701554 -5.346119 -14.900231 3.076484 -4.859398 5.809344 27.821628 12.151615 -0.616116 -0.248907 -5.056496 21.682697 0.335049 -2.601045 -1.036696 -0.071023 1.719249 -4.730415 6.637626 2.544041 5.000711 4.351633 4.078497 3.026771 -1.859489 1.971871 -6.274043 -4.508327 -4.119646 -15.166223 2.951262 -4.763448 15.845523 -0.513022 -2.017923 8.572148 -7.119890 2.715342 -1.421972 -79.650946 10.609636 31.022268 16.713252 -27.473490 -4.469778 -0.465822 -1.223102 -4.130495 23.937160 27.098965 12.175862 -7.125000 0.000000 0.000000 -7.128963 60.415523 -2.688197 11.333991 -1.489142 -2.437928 70.306633 3.540238 22.556615 -12.953814 25.988058 -3.728943 0.991057 -0.502352 -0.059712 -15.149328 23.637688 -6.722648 7.125000 0.000000 0.000000 8.104699 -5.281465 7.400067
0.212000 18.114078 -5.376857 -7.945634 -7.255481 2.357884 -1.063073 3.329998 1.787101 -3.397255 -9.347314 -31.965336 0.402397 9.558280 26.283717 -0.977422 6.552612 10.584598 0.599365 -4.952097 -13.772804 3.111055 -4.874673 5.868947 27.807078 12.023755 -0.212288 -0.184203 -4.934948 21.331684 0.278867 -2.452906 -1.102744 -0.074419 1.759355 -4.841050 6.817174 2.623386 4.852482 4.327744 4.179109 3.091835 -1.956051 2.031633 -6.111431 -4.420358 -4.131726 -15.385775 2.876916 -4.768571 15.910219 -0.554243 -2.019371 8.628309 -7.124214 2.722178 -1.429566 -79.663035 10.688963 31.217684 16.746413 -27.519219 -4.484752 -0.458851 -1.238185 -4.650708 24.055131 27.398320 12.361537 -7.125000 0.000000 0.000000 -7.149239 60.763396 -2.754863 11.329994 -1.472530 -2.421110 70.238510 3.924799 22.610438 -12.915285 25.917117 -3.698125 0.996388 -0.539054 -0.047248 -15.220371 24.297064 -6.936580 7.125000 0.000000 0.000000 8.104211 -4.569809 7.509727
